HIERARCHY
ROOT Hips
{
	OFFSET 0.000000 97.420761 0.000000
	CHANNELS 6 Xposition Yposition Zposition Xrotation Yrotation Zrotation
	JOINT RightUpLeg
	{
		OFFSET -8.571318 0.002251 -0.000250
		CHANNELS 6 Xposition Yposition Zposition Xrotation Yrotation Zrotation
		JOINT RightLeg
		{
			OFFSET 0.000000 -44.326080 -0.000105
			CHANNELS 6 Xposition Yposition Zposition Xrotation Yrotation Zrotation
			JOINT RightFoot
			{
				OFFSET 0.000000 -43.324329 -0.000176
				CHANNELS 6 Xposition Yposition Zposition Xrotation Yrotation Zrotation
				JOINT RightToeBase
				{
					OFFSET 0.000000 -7.938133 18.050686
					CHANNELS 6 Xposition Yposition Zposition Xrotation Yrotation Zrotation
					End Site
					{
						OFFSET 0.000000 0.000000 19.719055
					}
				}
			}
		}
	}
	JOINT LeftUpLeg
	{
		OFFSET 8.571318 -0.000084 0.000009
		CHANNELS 6 Xposition Yposition Zposition Xrotation Yrotation Zrotation
		JOINT LeftLeg
		{
			OFFSET 0.000000 -44.326080 -0.000105
			CHANNELS 6 Xposition Yposition Zposition Xrotation Yrotation Zrotation
			JOINT LeftFoot
			{
				OFFSET 0.000000 -43.324329 -0.000176
				CHANNELS 6 Xposition Yposition Zposition Xrotation Yrotation Zrotation
				JOINT LeftToeBase
				{
					OFFSET 0.000000 -7.938133 18.050686
					CHANNELS 6 Xposition Yposition Zposition Xrotation Yrotation Zrotation
					End Site
					{
						OFFSET 0.000000 0.000000 19.719055
					}
				}
			}
		}
	}
	JOINT Spine
	{
		OFFSET 0.000000 10.422829 -1.158092
		CHANNELS 6 Xposition Yposition Zposition Xrotation Yrotation Zrotation
		JOINT Spine1
		{
			OFFSET 0.000000 11.587624 0.000000
			CHANNELS 3 Xrotation Yrotation Zrotation
			JOINT Spine2
			{
				OFFSET 0.000000 10.579559 -0.000443
				CHANNELS 6 Xposition Yposition Zposition Xrotation Yrotation Zrotation
				JOINT Spine3
				{
					OFFSET 0.000000 10.567749 -0.000444
					CHANNELS 6 Xposition Yposition Zposition Xrotation Yrotation Zrotation
					JOINT LeftShoulder
					{
						OFFSET 3.218383 8.290512 0.000000
						CHANNELS 6 Xposition Yposition Zposition Xrotation Yrotation Zrotation
						JOINT LeftArm
						{
							OFFSET 15.038529 0.000000 0.000000
							CHANNELS 3 Xrotation Yrotation Zrotation
							JOINT LeftForeArm
							{
								OFFSET 32.129166 0.000000 0.000000
								CHANNELS 3 Xrotation Yrotation Zrotation
								JOINT LeftHand
								{
									OFFSET 26.275406 0.000000 0.000000
									CHANNELS 3 Xrotation Yrotation Zrotation
									End Site
									{
										OFFSET 26.275406 0.000000 0.000000
									}
								}
							}
						}
					}
					JOINT RightShoulder
					{
						OFFSET -3.218383 8.290512 0.000000
						CHANNELS 6 Xposition Yposition Zposition Xrotation Yrotation Zrotation
						JOINT RightArm
						{
							OFFSET -15.038529 0.000000 0.000000
							CHANNELS 3 Xrotation Yrotation Zrotation
							JOINT RightForeArm
							{
								OFFSET -32.129166 0.000000 0.000000
								CHANNELS 3 Xrotation Yrotation Zrotation
								JOINT RightHand
								{
									OFFSET -26.275406 0.000000 0.000000
									CHANNELS 3 Xrotation Yrotation Zrotation
									End Site
									{
										OFFSET -26.275406 0.000000 0.000000
									}
								}
							}
						}
					}
					JOINT Neck
					{
						OFFSET 0.000000 14.789474 0.000000
						CHANNELS 6 Xposition Yposition Zposition Xrotation Yrotation Zrotation
						JOINT Head
						{
							OFFSET 0.000000 9.838806 0.000953
							CHANNELS 6 Xposition Yposition Zposition Xrotation Yrotation Zrotation
							End Site
							{
								OFFSET 0.000000 9.838806 0.000000
							}
						}
					}
				}
			}
		}
	}
}
MOTION
Frames: 7
Frame Time: 0.016667
11.773630 61.391823 40.847496 -37.370926 40.100683 25.287239 -8.571318 0.002261 -0.000250 -47.705784 -3.124948 -1.044625 -0.000002 -44.326088 -0.000103 88.803763 -0.104741 0.062355 0.000003 -43.324326 -0.000175 -10.594877 -0.737749 2.317095 -0.000009 -7.938133 18.050690 -2.910627 0.108482 -4.268094 8.571314 -0.000085 0.000014 -51.377065 -6.925250 6.280653 -0.000006 -44.326088 -0.000111 99.284504 -0.595923 -1.506631 -0.000003 -43.324329 -0.000180 -9.601900 5.252976 -14.458585 0.000003 -7.938131 18.050690 -6.162208 -0.199006 7.861390 -0.000001 10.422830 -1.158092 5.492519 -1.146851 0.637011 -3.387121 -0.541915 0.215614 -0.000001 10.579580 -0.000448 2.433309 -0.541935 0.215557 0.000000 10.567752 -0.000439 7.661574 -0.389002 0.200073 3.218381 8.290515 0.000003 -4.694364 -0.615801 -6.759984 -0.398397 2.052471 -79.941333 -1.790276 -1.294506 1.903557 1.379705 0.052371 -5.212333 -3.218381 8.290510 0.000001 -5.965727 -1.068888 6.484721 -6.707270 2.178482 76.965912 8.362103 -0.222627 0.810702 1.474976 -5.186977 7.245288 -0.000001 14.789471 -0.000000 19.188069 -2.423036 0.645696 0.000000 9.838799 0.000951 -0.397987 -4.632040 0.415789 
11.772619 61.385750 40.845993 -37.383104 40.103418 25.296319 -8.571316 0.002254 -0.000243 -47.703667 -3.132853 -1.054199 0.000003 -44.326077 -0.000102 88.810040 -0.101929 0.063006 -0.000005 -43.324326 -0.000177 -10.622429 -0.760335 2.305842 -0.000002 -7.938133 18.050684 -2.885542 0.107365 -4.260868 8.571317 -0.000082 0.000017 -51.361499 -6.921837 6.282129 -0.000004 -44.326080 -0.000108 99.285774 -0.592884 -1.510876 0.000000 -43.324322 -0.000180 -9.607540 5.274288 -14.465813 -0.000003 -7.938134 18.050695 -6.238521 -0.209667 7.871577 0.000002 10.422826 -1.158083 5.490033 -1.143975 0.638422 -3.388225 -0.540720 0.216406 -0.000001 10.579558 -0.000442 2.432207 -0.540746 0.216350 0.000003 10.567751 -0.000445 7.660744 -0.388056 0.200578 3.218382 8.290527 0.000005 -4.661380 -0.627332 -6.753062 -0.420403 2.050501 -79.944332 -1.774354 -1.307473 1.884849 1.382405 -0.008236 -5.175776 -3.218382 8.290507 0.000004 -5.953790 -1.076245 6.485951 -6.701568 2.164969 76.950892 8.388617 -0.220715 0.824254 1.478432 -5.191690 7.252301 0.000001 14.789473 -0.000000 19.193759 -2.423313 0.645324 -0.000000 9.838799 0.000951 -0.387426 -4.632400 0.415216 
11.771553 61.382736 40.844597 -37.394480 40.106755 25.306209 -8.571314 0.002252 -0.000249 -47.699934 -3.141557 -1.064417 0.000002 -44.326080 -0.000099 88.813605 -0.100118 0.062166 -0.000003 -43.324337 -0.000179 -10.646575 -0.778156 2.296059 0.000006 -7.938132 18.050667 -2.863527 0.106406 -4.255207 8.571320 -0.000090 0.000007 -51.343382 -6.920013 6.281280 -0.000007 -44.326080 -0.000116 99.283398 -0.595068 -1.518164 -0.000001 -43.324326 -0.000175 -9.609066 5.301632 -14.476753 -0.000005 -7.938132 18.050690 -6.321107 -0.221068 7.886009 -0.000001 10.422828 -1.158089 5.486744 -1.140692 0.640702 -3.389687 -0.539400 0.217604 -0.000003 10.579559 -0.000444 2.430748 -0.539423 0.217552 -0.000002 10.567729 -0.000442 7.659652 -0.386984 0.201379 3.218383 8.290520 0.000002 -4.624705 -0.639801 -6.742338 -0.444302 2.060381 -79.961810 -1.760193 -1.319223 1.869176 1.381664 -0.090866 -5.124211 -3.218381 8.290512 -0.000001 -5.938074 -1.081191 6.487580 -6.693426 2.151152 76.931201 8.408387 -0.212633 0.840038 1.480624 -5.197217 7.259292 0.000002 14.789472 -0.000003 19.200142 -2.424392 0.645226 -0.000001 9.838809 0.000952 -0.375561 -4.634315 0.414915 
11.770483 61.380020 40.843193 -37.405569 40.110822 25.316479 -8.571319 0.002245 -0.000243 -47.695921 -3.151360 -1.075254 -0.000000 -44.326077 -0.000102 88.816488 -0.098688 0.060534 -0.000005 -43.324318 -0.000174 -10.671547 -0.795285 2.285950 -0.000002 -7.938134 18.050686 -2.840839 0.105419 -4.249536 8.571316 -0.000084 0.000013 -51.323500 -6.919221 6.279029 0.000008 -44.326080 -0.000103 99.279737 -0.599795 -1.527406 0.000002 -43.324333 -0.000174 -9.608487 5.332410 -14.490084 0.000005 -7.938133 18.050686 -6.419405 -0.234549 7.903233 -0.000002 10.422827 -1.158090 5.482891 -1.136862 0.643102 -3.391393 -0.537846 0.218889 -0.000001 10.579556 -0.000446 2.429039 -0.537868 0.218836 0.000002 10.567749 -0.000442 7.658368 -0.385727 0.202229 3.218382 8.290515 0.000004 -4.583377 -0.653714 -6.729954 -0.472137 2.076766 -79.981037 -1.745323 -1.331902 1.852380 1.380106 -0.192474 -5.063907 -3.218382 8.290518 0.000005 -5.919495 -1.084688 6.489586 -6.684559 2.135373 76.907739 8.425376 -0.200685 0.858700 1.482406 -5.203411 7.267030 0.000001 14.789470 0.000003 19.207218 -2.425547 0.645954 0.000001 9.838784 0.000952 -0.362408 -4.636609 0.416128 
11.769789 61.370415 40.841801 -37.414926 40.116201 25.323439 -8.571316 0.002249 -0.000255 -47.696259 -3.164104 -1.085804 -0.000007 -44.326073 -0.000099 88.823311 -0.098979 0.058860 -0.000003 -43.324326 -0.000167 -10.703449 -0.813068 2.272795 -0.000001 -7.938131 18.050674 -2.812697 0.104170 -4.241224 8.571319 -0.000093 0.000009 -51.305092 -6.920260 6.277521 0.000008 -44.326084 -0.000108 99.280242 -0.603342 -1.537479 -0.000003 -43.324333 -0.000174 -9.609672 5.358922 -14.502542 -0.000010 -7.938135 18.050686 -6.566897 -0.254737 7.920385 -0.000000 10.422827 -1.158092 5.477939 -1.132080 0.643368 -3.393587 -0.535746 0.219292 -0.000003 10.579542 -0.000440 2.426846 -0.535766 0.219239 0.000003 10.567746 -0.000441 7.656721 -0.384129 0.202379 3.218383 8.290510 0.000001 -4.537153 -0.670762 -6.721958 -0.506431 2.093678 -79.964727 -1.724962 -1.351658 1.823163 1.383128 -0.315332 -5.011361 -3.218383 8.290519 0.000003 -5.899760 -1.086646 6.492803 -6.678340 2.113148 76.880439 8.442743 -0.186121 0.882464 1.484776 -5.209724 7.277488 0.000001 14.789485 0.000003 19.216018 -2.423793 0.650564 -0.000001 9.838812 0.000951 -0.345845 -4.634820 0.425424 
11.769926 61.348473 40.840683 -37.418980 40.123055 25.323101 -8.571316 0.002251 -0.000250 -47.705788 -3.179458 -1.093828 0.000003 -44.326084 -0.000104 88.837006 -0.103133 0.057256 0.000001 -43.324326 -0.000173 -10.741854 -0.828167 2.256927 0.000007 -7.938132 18.050680 -2.779889 0.102675 -4.229658 8.571316 -0.000086 0.000015 -51.294820 -6.924210 6.277617 0.000002 -44.326084 -0.000116 99.293547 -0.603260 -1.547855 -0.000002 -43.324333 -0.000169 -9.618543 5.373262 -14.510138 0.000002 -7.938134 18.050690 -6.769196 -0.282394 7.933825 -0.000001 10.422829 -1.158090 5.471193 -1.126636 0.639531 -3.396564 -0.533118 0.217928 -0.000005 10.579557 -0.000444 2.423869 -0.533141 0.217873 0.000002 10.567747 -0.000445 7.654487 -0.382265 0.201175 3.218382 8.290519 -0.000001 -4.495646 -0.686001 -6.724554 -0.548548 2.094127 -79.894205 -1.710090 -1.359041 1.790549 1.393272 -0.432071 -4.978424 -3.218383 8.290516 -0.000002 -5.891230 -1.088247 6.498593 -6.677117 2.080149 76.866321 8.470965 -0.198147 0.897670 1.480690 -5.224236 7.283212 -0.000001 14.789468 -0.000006 19.226228 -2.417828 0.661140 0.000004 9.838807 0.000949 -0.326394 -4.627206 0.447013 
11.770485 61.320045 40.839638 -37.420749 40.130937 25.319009 -8.571318 0.002252 -0.000250 -47.719738 -3.197047 -1.100953 -0.000002 -44.326077 -0.000101 88.854361 -0.109019 0.055721 0.000000 -43.324333 -0.000181 -10.785471 -0.842909 2.238729 0.000005 -7.938133 18.050676 -2.743157 0.100989 -4.215887 8.571316 -0.000085 0.000007 -51.287125 -6.929936 6.278588 0.000002 -44.326077 -0.000114 99.311039 -0.601715 -1.558460 -0.000000 -43.324341 -0.000176 -9.629163 5.381651 -14.516068 0.000004 -7.938130 18.050686 -7.012745 -0.315717 7.946008 -0.000002 10.422837 -1.158093 5.463630 -1.120511 0.633497 -3.399901 -0.530066 0.215637 0.000001 10.579567 -0.000445 2.420532 -0.530089 0.215581 0.000001 10.567743 -0.000441 7.651991 -0.380152 0.199245 3.218385 8.290516 0.000002 -4.451913 -0.703422 -6.732113 -0.595211 2.093940 -79.788357 -1.690848 -1.372507 1.746992 1.407756 -0.562960 -4.956534 -3.218381 8.290510 0.000002 -5.882723 -1.088200 6.505421 -6.678954 2.041916 76.849894 8.498644 -0.208410 0.916650 1.477082 -5.238496 7.291093 0.000000 14.789475 0.000002 19.237680 -2.409012 0.675389 -0.000003 9.838791 0.000954 -0.304472 -4.615512 0.476263 
